<svg xmlns="http://www.w3.org/2000/svg" width="360" height="360" viewBox="0 0 360 360">
  <defs>
    <linearGradient id="leaf" x1="0" y1="0" x2="0" y2="1">
      <stop offset="0" stop-color="#6fd49a"/>
      <stop offset="1" stop-color="#2f7b55"/>
    </linearGradient>
    <filter id="shadow" x="-20%" y="-20%" width="140%" height="140%">
      <feDropShadow dx="0" dy="8" stdDeviation="6" flood-color="#000" flood-opacity="0.35"/>
    </filter>
  </defs>

  <g filter="url(#shadow)">
    <!-- body -->
    <ellipse cx="200" cy="220" rx="70" ry="78" fill="#3a2b1f"/>
    <ellipse cx="200" cy="240" rx="46" ry="52" fill="#4b3a2b" opacity="0.9"/>
    <!-- head -->
    <circle cx="190" cy="150" r="58" fill="#3a2b1f"/>
    <ellipse cx="190" cy="162" rx="38" ry="30" fill="#d8c3a4" opacity="0.95"/>
    <circle cx="172" cy="150" r="6" fill="#16222c"/>
    <circle cx="208" cy="150" r="6" fill="#16222c"/>
    <path d="M178 172 q12 12 24 0" stroke="#7a4a34" stroke-width="5" fill="none" stroke-linecap="round"/>
    <!-- leaf hood -->
    <path d="M132 136 q28-70 90-60 q44 8 58 54 q-18 20-34 22 q-16-24-38-28 q-28-6-52 12 q-10 8-24 0z" fill="url(#leaf)"/>
    <path d="M120 140 q24-30 60-26 q-8 18-26 34 q-18 16-34 -8z" fill="#4fbf7f" opacity="0.9"/>
    <!-- dagger -->
    <path d="M90 248 l20-10 70 130 -20 10z" fill="#2a3a48"/>
    <rect x="98" y="242" width="26" height="18" rx="6" fill="#caa35b"/>
    <path d="M88 252 l18-10 12 22 -18 10z" fill="#d7e6f5" opacity="0.9"/>
  </g>
</svg>
