<svg xmlns="http://www.w3.org/2000/svg" width="64" height="64" viewBox="0 0 64 64">
  <defs><linearGradient id="g" x1="0" y1="0" x2="1" y2="1">
    <stop offset="0" stop-color="#5fd38a"/><stop offset="1" stop-color="#2bb6a6"/>
  </linearGradient></defs>
  <path d="M32 14l4 3 5-1 3 5-3 4 2 5 5 2-1 6-5 1-2 5 3 4-4 5-5-2-4 3-4-3-5 2-4-5 3-4-2-5-5-1-1-6 5-2 2-5-3-4 3-5 5 1 4-3z"
        fill="rgba(255,255,255,0.10)" stroke="url(#g)" stroke-width="3" stroke-linejoin="round"/>
  <circle cx="32" cy="32" r="7" fill="url(#g)" opacity="0.9"/>
</svg>